<?xml version="1.0" encoding="UTF-8"?>
<svg version="1.1" xmlns="http://www.w3.org/2000/svg" width="234" height="216">
<path d="M0 0 C77.22 0 154.44 0 234 0 C234 71.28 234 142.56 234 216 C156.78 216 79.56 216 0 216 C0 144.72 0 73.44 0 0 Z " fill="#F9EFE3" transform="translate(0,0)"/>
<path d="M0 0 C2.17493861 1.66467847 4.26585568 3.39303917 6.34765625 5.171875 C7.35828125 5.935 8.36890625 6.698125 9.41015625 7.484375 C21.00732122 18.09454721 28.64572723 32.01595768 32.34765625 47.171875 C32.52208252 47.84468506 32.69650879 48.51749512 32.8762207 49.21069336 C37.97305828 70.01080769 33.16804059 91.05294448 22.34765625 109.171875 C20.17999972 112.33599237 17.84190427 115.26191897 15.34765625 118.171875 C14.90164062 118.76097656 14.455625 119.35007813 13.99609375 119.95703125 C2.69136276 134.46807483 -16.74927507 143.29459611 -34.65234375 146.171875 C-55.90105933 148.40138039 -76.60238383 143.60562191 -93.71484375 130.546875 C-95.0352397 129.4311529 -96.34852871 128.30692901 -97.65234375 127.171875 C-98.53212891 126.50478516 -98.53212891 126.50478516 -99.4296875 125.82421875 C-113.94891974 114.53148256 -122.77555966 95.07186492 -125.65234375 77.171875 C-127.89591393 55.78911231 -123.03402289 34.99065764 -109.77734375 17.859375 C-108.73758657 16.62859267 -107.6962352 15.39915279 -106.65234375 14.171875 C-105.99234375 13.181875 -105.33234375 12.191875 -104.65234375 11.171875 C-103.99234375 11.171875 -103.33234375 11.171875 -102.65234375 11.171875 C-102.65234375 10.511875 -102.65234375 9.851875 -102.65234375 9.171875 C-92.06028655 -1.24725065 -79.02956527 -8.31639737 -64.65234375 -11.828125 C-63.97953369 -12.00255127 -63.30672363 -12.17697754 -62.61352539 -12.35668945 C-41.08785118 -17.63131744 -18.11846779 -12.48813391 0 0 Z " fill="#E3883D" transform="translate(167.65234375,41.828125)"/>
<path d="M0 0 C2 1 2 1 2.68603516 2.76586914 C2.88503418 3.51473389 3.0840332 4.26359863 3.2890625 5.03515625 C3.50820312 5.84404297 3.72734375 6.65292969 3.953125 7.48632812 C4.28570312 8.7615332 4.28570312 8.7615332 4.625 10.0625 C4.96917969 11.34350586 4.96917969 11.34350586 5.3203125 12.65039062 C5.88736426 14.76502114 6.44460168 16.88227891 7 19 C8.32 13.72 9.64 8.44 11 3 C8.69 2.67 6.38 2.34 4 2 C4 1.67 4 1.34 4 1 C7.63 0.67 11.26 0.34 15 0 C14.20816175 3.16735302 13.34275354 6.26919178 12.40625 9.39453125 C12.09816406 10.43287109 11.79007813 11.47121094 11.47265625 12.54101562 C10.82741922 14.71124057 10.17901219 16.88052571 9.52734375 19.04882812 C7.9550172 24.36776544 6.56724311 29.4772581 6 35 C3.03 35 0.06 35 -3 35 C-3 34.34 -3 33.68 -3 33 C-0.03 32.505 -0.03 32.505 3 32 C2.37987481 29.26964299 1.75409113 26.54079236 1.125 23.8125 C0.95097656 23.04357422 0.77695313 22.27464844 0.59765625 21.48242188 C-0.32545044 17.49938746 -1.33072186 13.75211617 -3 10 C-6.46779609 22.30421173 -6.46779609 22.30421173 -7 35 C-9.31 35 -11.62 35 -14 35 C-14 34.34 -14 33.68 -14 33 C-13.34 33 -12.68 33 -12 33 C-10.96758178 29.67592618 -9.97772486 26.34055995 -9 23 C-8.443125 21.10507813 -8.443125 21.10507813 -7.875 19.171875 C-7.49883211 17.84408031 -7.12382693 16.51595566 -6.75 15.1875 C-6.39421875 13.94355469 -6.0384375 12.69960937 -5.671875 11.41796875 C-5.02334468 8.11875927 -5.05388639 6.18403618 -6 3 C-4.03533587 1.93224776 -2.03144641 0.93446535 0 0 Z " fill="#F8EADB" transform="translate(146,84)"/>
<path d="M0 0 C2.4375 1.1875 2.4375 1.1875 4 3 C4.25 5.6875 4.25 5.6875 4 8 C2.68 8.33 1.36 8.66 0 9 C0 6.69 0 4.38 0 2 C-5.62608806 2.57881126 -5.62608806 2.57881126 -9.796875 6.11328125 C-14.3429548 13.5287926 -16.57969209 20.30461864 -16 29 C-15.34 29.99 -14.68 30.98 -14 32 C-10.1326404 32.42036517 -7.19173203 32.31125423 -4 30 C-2.24677063 27.46811352 -2.24677063 27.46811352 -1 25 C-0.34 25.33 0.32 25.66 1 26 C-1.86823446 31.16282203 -4.09224584 33.29776575 -10 35 C-14.10672965 34.93039441 -16.17772672 34.67080189 -19.375 32.0625 C-22.67585512 27.87295312 -22.43545641 24.16902892 -22 19 C-20.71170269 12.43841792 -17.97743969 7.47969572 -13 3 C-8.60544927 0.10146654 -5.23702205 -0.58189134 0 0 Z " fill="#F8E6D5" transform="translate(117,84)"/>
<path d="M0 0 C2 3 2 3 1.76806641 4.85009766 C1.43814697 5.87176025 1.43814697 5.87176025 1.1015625 6.9140625 C0.75351563 8.05681641 0.75351563 8.05681641 0.3984375 9.22265625 C0.14320313 10.01542969 -0.11203125 10.80820313 -0.375 11.625 C-2.42402472 17.99618623 -3.28152046 23.28372609 -3 30 C-5.31 30 -7.62 30 -10 30 C-10 29.34 -10 28.68 -10 28 C-9.34 28 -8.68 28 -8 28 C-5.13311726 18.72342008 -2.57945197 9.35943441 0 0 Z " fill="#F6E0CB" transform="translate(142,89)"/>
<path d="M0 0 C-0.66525672 2.72514801 -1.39660103 5.41926503 -2.19140625 8.109375 C-2.41376953 8.86347656 -2.63613281 9.61757812 -2.86523438 10.39453125 C-3.09533203 11.17183594 -3.32542969 11.94914062 -3.5625 12.75 C-3.91344727 13.93916016 -3.91344727 13.93916016 -4.27148438 15.15234375 C-4.84692034 17.10177988 -5.42336148 19.05091925 -6 21 C-6.99 20.67 -7.98 20.34 -9 20 C-8.80664062 19.443125 -8.61328125 18.88625 -8.4140625 18.3125 C-6.68625575 13.24882873 -5.2306933 8.20677935 -4 3 C-6.31 2.67 -8.62 2.34 -11 2 C-11 1.67 -11 1.34 -11 1 C-9.54182203 0.83197949 -8.0834516 0.66562857 -6.625 0.5 C-5.81289062 0.4071875 -5.00078125 0.314375 -4.1640625 0.21875 C-2 0 -2 0 0 0 Z " fill="#F7E1CE" transform="translate(161,84)"/>
<path d="M0 0 C0.99 0.33 1.98 0.66 3 1 C2.67 2.65 2.34 4.3 2 6 C0.68 6 -0.64 6 -2 6 C-1.125 1.125 -1.125 1.125 0 0 Z " fill="#F9EBDC" transform="translate(120,112)"/>
</svg>
